<?xml version="1.0" encoding="UTF-8" standalone="no"?>
<svg
   width="89.353706mm"
   height="89.353706mm"
   viewBox="0 0 89.353706 89.353706"
   version="1.1"
   id="svg5"
   xmlns="http://www.w3.org/2000/svg"
   xmlns:svg="http://www.w3.org/2000/svg">
  <defs
     id="defs1" />
  <path
     fill="#ffffff"
     d="m 44.673618,85.295982 c -22.433731,0 -40.6159122,-18.188632 -40.6159122,-40.615912 0,-22.433732 18.1821812,-40.6158966 40.6159122,-40.6158966 22.433731,0 40.615913,18.1821646 40.615913,40.6158966 0,22.42728 -18.182182,40.615912 -40.615913,40.615912 M 44.673618,0 C 19.997804,0 0,20.004272 0,44.68007 c 0,24.675814 19.997804,44.673635 44.673618,44.673635 24.675814,0 44.680086,-19.997821 44.680086,-44.673635 C 89.353704,20.004272 69.349432,0 44.673618,0"
     id="path3"
     style="stroke-width:1.6541" />
  <path
     fill="#d70723"
     d="m 44.673618,4.0641734 c -22.433731,0 -40.6159122,18.1821646 -40.6159122,40.6158966 0,22.42728 18.1821812,40.615912 40.6159122,40.615912 22.433731,0 40.615913,-18.188632 40.615913,-40.615912 0,-22.433732 -18.182182,-40.6158966 -40.615913,-40.6158966"
     id="path4"
     style="fill:#dc0a0a;fill-opacity:1;stroke-width:1.6541" />
  <path
     fill="#ffffff"
     d="M 35.621308,27.919389 V 60.419873 H 29.702723 V 41.830634 c 0,-3.082051 0,-3.993096 -2.655608,-3.993096 h -5.29183 v -3.708807 h 0.626755 c 3.030361,-0.04532 7.126839,-0.09693 8.425572,-6.209342 z m 28.158455,23.1574 c 0,5.925035 -5.104436,9.775995 -12.179601,9.775995 -7.417597,0 -11.992225,-4.141717 -11.992225,-9.775995 0,-5.104454 3.708806,-6.887772 5.34352,-7.656664 -3.463272,-1.63473 -4.18694,-5.149693 -4.18694,-7.075165 0,-5.052762 4.18694,-8.955396 11.171642,-8.955396 6.693928,0 11.074713,3.611876 11.074713,9.239703 0,2.842984 -1.15658,5.298281 -4.238632,6.790858 3.75403,1.880232 5.007523,4.671526 5.007523,7.656664 M 46.398795,50.882945 c 0,2.74607 1.925471,4.626319 5.485674,4.626319 3.133742,0 5.446901,-1.641182 5.446901,-4.671543 0,-0.581515 -0.09693,-4.626302 -5.446901,-4.626302 -5.149677,0 -5.485674,3.663567 -5.485674,4.671526 M 46.92862,37.068629 c 0,1.440887 0.626755,4.283871 5.007539,4.283871 3.80572,0 4.768456,-2.455313 4.768456,-4.283871 0,-3.708806 -2.939898,-4.380784 -4.820146,-4.380784 -4.090027,-0.05161 -4.955849,2.597466 -4.955849,4.380784"
     id="path5"
     style="stroke-width:1.6541" />
</svg>
